# xmcd
#
# Track frame offsets:
#	182
#	20430
#	38080
#	58340
#	79320
#	97110
#	113430
#	130980
#	154855
#	173682
#	191497
#	209062
#	226447
#	245057
#	270355
#	289187
#
# Disc length: 4124 seconds
#
# Revision: 1
# Processed by: cddbd v1.5.2PL0 Copyright (c) Steve Scherf et al.
# Submitted via: EZCDAudioConverter 8.2.2.1
#
DISCID=e5101a10
DTITLE=Various Artist - The Stars of Soul
DYEAR=2006
DGENRE=Blues
TTITLE0=The Supremes - Stoned Love
TTITLE1=The Elgins - Heaven Must Have Sent You
TTITLE2=G C Cameron - Striaght in the Eye
TTITLE3=The Originals - Take the Only Way Out
TTITLE4=The Supremes - Hit and Miss
TTITLE5=The Elgins - Is That Too Much
TTITLE6=The Supremes - Nathan Jones
TTITLE7=The Elgins - Brand New Feeling
TTITLE8=The Originals - Baby I'm for Real
TTITLE9=The Elgins - Ten out of Ten
TTITLE10=The Supremes - Crazy 'Bout the Guy
TTITLE11=G C Cameron - It's a Shame
TTITLE12=The Originals - Love Still Lives in My Heart
TTITLE13=G C Cameron - Come Back to Me
TTITLE14=The Originals - Please Mr Postman
TTITLE15=G C Cameron - Right or Wrong
EXTD=
EXTT0=
EXTT1=
EXTT2=
EXTT3=
EXTT4=
EXTT5=
EXTT6=
EXTT7=
EXTT8=
EXTT9=
EXTT10=
EXTT11=
EXTT12=
EXTT13=
EXTT14=
EXTT15=
PLAYORDER=
